<?xml version="1.0" standalone="no"?>
<!DOCTYPE svg PUBLIC "-//W3C//DTD SVG 20010904//EN"
 "http://www.w3.org/TR/2001/REC-SVG-20010904/DTD/svg10.dtd">
<svg version="1.0" xmlns="http://www.w3.org/2000/svg"
 width="1000.000000pt" height="250.000000pt" viewBox="0 0 1000.000000 250.000000"
 preserveAspectRatio="xMidYMid meet">

<g transform="translate(0.000000,250.000000) scale(0.100000,-0.100000)"
fill="#000000" stroke="none">
<path d="M1065 2193 c-70 -10 -155 -37 -220 -71 -57 -29 -102 -68 -241 -206
-94 -94 -190 -195 -213 -224 -37 -49 -41 -59 -41 -113 0 -112 26 -157 179
-312 75 -75 141 -137 147 -137 7 0 10 35 10 98 -1 148 4 156 320 466 146 143
281 272 302 287 45 33 144 63 183 55 50 -10 42 13 -20 53 -131 84 -277 122
-406 104z"/>
<path d="M4295 1763 c-176 -23 -337 -135 -409 -285 -145 -304 6 -647 329 -744
43 -13 92 -18 175 -18 98 0 126 4 188 26 94 34 159 76 226 148 152 164 178
425 62 623 -39 66 -142 159 -216 195 -99 49 -239 70 -355 55z m231 -226 c67
-34 138 -113 161 -180 27 -79 23 -179 -11 -253 -53 -117 -148 -184 -271 -192
-133 -8 -245 60 -307 186 -28 57 -33 76 -32 142 0 61 5 87 29 138 34 76 103
142 178 172 73 29 182 23 253 -13z"/>
<path d="M7995 1754 c-281 -63 -457 -313 -416 -591 40 -276 300 -473 591 -449
303 25 510 238 510 526 0 239 -148 436 -380 504 -81 24 -221 29 -305 10z m245
-203 c78 -30 134 -81 172 -159 30 -60 33 -75 33 -152 0 -104 -30 -176 -100
-244 -152 -148 -409 -97 -505 99 -32 66 -39 182 -15 254 56 170 250 265 415
202z"/>
<path d="M2730 1240 l0 -520 115 0 115 0 0 205 0 205 240 0 240 0 0 -205 0
-205 115 0 115 0 0 520 0 520 -115 0 -115 0 0 -220 0 -220 -240 0 -240 0 0
220 0 220 -115 0 -115 0 0 -520z"/>
<path d="M5100 1240 l0 -520 115 0 115 0 0 150 0 150 123 0 122 -1 81 -147 82
-147 131 -3 130 -3 -112 172 c-73 113 -107 174 -99 177 28 9 98 70 123 107 41
60 59 127 59 220 0 111 -21 174 -82 240 -55 61 -131 99 -228 114 -36 6 -176
11 -312 11 l-248 0 0 -520z m542 318 c109 -33 155 -191 80 -280 -47 -56 -90
-68 -249 -68 l-143 0 0 180 0 180 136 0 c75 0 154 -5 176 -12z"/>
<path d="M6180 1240 l0 -520 115 0 115 0 0 520 0 520 -115 0 -115 0 0 -520z"/>
<path d="M6590 1665 l0 -95 281 0 c172 0 279 -4 277 -9 -1 -6 -73 -92 -158
-193 -85 -100 -215 -253 -287 -340 l-133 -158 0 -75 0 -75 450 0 450 0 0 95 0
95 -291 0 c-175 0 -289 4 -287 9 2 5 130 161 286 346 l282 337 0 79 0 79 -435
0 -435 0 0 -95z"/>
<path d="M8840 1240 l0 -520 110 0 110 0 0 330 c0 182 4 330 8 330 4 0 120
-148 256 -330 l249 -330 103 0 104 0 0 520 0 520 -105 0 -105 0 0 -330 c0
-205 -4 -330 -10 -330 -5 0 -121 148 -257 330 l-248 329 -107 1 -108 0 0 -520z"/>
<path d="M1596 1308 c-3 -13 -7 -56 -9 -96 -4 -64 -9 -80 -40 -125 -20 -29
-85 -99 -144 -156 -59 -57 -180 -175 -268 -261 -138 -135 -168 -160 -218 -178
-32 -12 -73 -22 -93 -22 -45 0 -57 -26 -23 -53 33 -26 132 -76 188 -93 79 -25
208 -29 297 -9 142 31 197 68 401 269 207 203 226 232 227 335 1 92 -23 133
-162 274 -136 137 -149 147 -156 115z"/>
</g>
</svg>
